<svg id="Capa_1" data-name="Capa 1" xmlns="http://www.w3.org/2000/svg" viewBox="0 0 408 368"><defs><style>.cls-1{fill:#e70a2b;}</style></defs><path class="cls-1" d="M195,37.07C112.77,37.07,45.86,104,45.86,186.23S112.77,335.37,195,335.37s149.14-66.91,149.14-149.14S277.25,37.07,195,37.07Zm20.12,244.44a22.08,22.08,0,0,1-4.66,6.85A21.61,21.61,0,0,1,195,294.69a20.78,20.78,0,0,1-15.2-6.33,22.7,22.7,0,0,1-4.57-6.85,21.94,21.94,0,0,1,0-16.79,22.44,22.44,0,0,1,4.57-7,20.78,20.78,0,0,1,15.2-6.33,21.62,21.62,0,0,1,20.14,13.28,21.94,21.94,0,0,1,0,16.79ZM220,129.43q-.71,6.85-1.85,13.63t-2.81,14.32q-1.67,7.58-3.6,18t-4.13,24.88q-2.21,14.42-4.48,34.8h-16q-2.29-20.39-4.48-34.8t-4.23-24.88q-2-10.46-3.6-18c-1.06-5-2-9.81-2.82-14.32S170.51,134,170,129.43s-.7-9.9-.7-16a47.37,47.37,0,0,1,2.2-15,35.57,35.57,0,0,1,5.88-11.16,27.33,27.33,0,0,1,8.27-7A19.49,19.49,0,0,1,195,77.74a20,20,0,0,1,9.41,2.47,25.84,25.84,0,0,1,8.26,7,36.53,36.53,0,0,1,5.81,11.16,47.65,47.65,0,0,1,2.2,15A158.35,158.35,0,0,1,220,129.43Z"/></svg>